- 
http://www.Speed.Cd 
       
http://www.Speed.Cd       the fast  and The Hottest Private Tracker on the net

(((--Registration will be open on june every weekend--)))

Please Seed back to make the speed Faster!!!

------------------nfo--------------------------
-








































          
          
              
              
                    
                    
                    
                    

Spring.Break.Massacre.2008.DVDRiP.XviD-SiC

Poster:
[img]http://img193.imageshack.us/img193/7673/springbreakmassacre.jpg[/img]

IMDB Link:
http://www.imdb.com/title/tt0485154/

Description:
A sleepover party during spring-break turns deadly for six beautiful sorority co-eds. Stanley Peterson, convicted serial killer, has escaped from maximum security prison. It's up to the college cuties to unravel the mystery of their assailant before the night is over. 

Mediainfo:
General
Complete name                    : Spring.Break.Massacre.2008.DVDRiP.XviD-SiC.avi
Format                           : AVI
Format/Info                      : Audio Video Interleave
File size                        : 700 MiB
Duration                         : 1h 16mn
Overall bit rate                 : 1 276 Kbps
Writing application              : VirtualDubMod 1.5.4.1 (build 2178/release)
Writing library                  : VirtualDubMod build 2178/release

Video
ID                               : 0
Format                           : MPEG-4 Visual
Format profile                   : Advanced Simple@L5
Format settings, BVOP            : 1
Format settings, QPel            : No
Format settings, GMC             : No warppoints
Format settings, Matrix          : Custom
Codec ID                         : XVID
Codec ID/Hint                    : XviD
Duration                         : 1h 16mn
Bit rate                         : 1 153 Kbps
Width                            : 720 pixels
Height                           : 416 pixels
Display aspect ratio             : 16:9
Frame rate                       : 23.976 fps
Color space                      : YUV
Chroma subsampling               : 4:2:0
Bit depth                        : 8 bits
Scan type                        : Progressive
Compression mode                 : Lossy
Bits/(Pixel*Frame)               : 0.161
Stream size                      : 633 MiB (90%)
Writing library                  : XviD 64

Audio
ID                               : 1
Format                           : MPEG Audio
Format version                   : Version 1
Format profile                   : Layer 3
Mode                             : Joint stereo
Mode extension                   : MS Stereo
Codec ID                         : 55
Codec ID/Hint                    : MP3
Duration                         : 1h 16mn
Bit rate mode                    : Variable
Bit rate                         : 110 Kbps
Nominal bit rate                 : 128 Kbps
Channel(s)                       : 2 channels
Sampling rate                    : 48.0 KHz
Compression mode                 : Lossy
Stream size                      : 60.5 MiB (9%)
Alignment                        : Aligned on interleaves
Interleave, duration             : 24 ms (0.58 video frame)
Interleave, preload duration     : 167 ms
Writing library                  : LAME3.98r
Encoding settings                : -m j -V 4 -q 2 -lowpass 17 --abr 128

Screenshots:
[img]http://img11.imageshack.us/img11/4166/vlcsnap2011062611h47m04.png[/img]
[img]http://img846.imageshack.us/img846/6696/vlcsnap2011062611h47m31.png[/img]
[img]http://img847.imageshack.us/img847/3034/vlcsnap2011062611h48m02.png[/img]
[img]http://img691.imageshack.us/img691/1496/vlcsnap2011062611h48m12.png[/img]
[img]http://img861.imageshack.us/img861/343/vlcsnap2011062611h48m19.png[/img]

Note: This is one for those of us that grew up in the eighties on films like "Slumber Party Massacre", and "Sleepaway Camp". If you liked the cheesy titties and gore goodness of those films, you're sure to appreciate Spring Break Massacre.

Encoder: Thefuzz

Enjoy!

Respects to CaptainHomey, Cyanide, CM8, Rx, Pirate666, THC, ELEKTRI4KA, Killerhz, XtremE, PA, YeFsTe and everyone in the struggle...